<svg width="15" height="15" viewBox="0 0 15 15" fill="none" xmlns="http://www.w3.org/2000/svg">
<g clip-path="url(#clip0_20_478)">
<rect width="15" height="15" rx="4" fill="#55632F"/>
<path d="M9.84375 1.40625C9.96807 1.40625 10.0869 1.45604 10.1748 1.54395C10.2627 1.63185 10.3125 1.75068 10.3125 1.875V2.8125C10.3125 3.06114 10.2139 3.29977 10.0381 3.47559C9.86227 3.6514 9.62364 3.75 9.375 3.75C9.74796 3.75 10.1054 3.89839 10.3691 4.16211C10.6329 4.42583 10.7812 4.78329 10.7812 5.15625V12.1875C10.7812 12.5605 10.6329 12.9179 10.3691 13.1816C10.1054 13.4454 9.74796 13.5937 9.375 13.5938H5.625C5.25204 13.5937 4.89458 13.4454 4.63086 13.1816C4.36714 12.9179 4.21875 12.5605 4.21875 12.1875V5.15625C4.21875 4.78329 4.36714 4.42583 4.63086 4.16211C4.89458 3.89839 5.25204 3.75 5.625 3.75C5.37636 3.75 5.13773 3.6514 4.96191 3.47559C4.7861 3.29977 4.6875 3.06114 4.6875 2.8125V1.875C4.6875 1.75068 4.73729 1.63185 4.8252 1.54395C4.9131 1.45604 5.03193 1.40625 5.15625 1.40625H9.84375ZM6.32812 7.91016C6.03688 7.91016 5.80078 8.14626 5.80078 8.4375C5.80078 8.72874 6.03688 8.96484 6.32812 8.96484H8.67188C8.96312 8.96484 9.19922 8.72874 9.19922 8.4375C9.19922 8.14626 8.96312 7.91016 8.67188 7.91016H6.32812Z" fill="#F3EEE0"/>
</g>
<defs>
<clipPath id="clip0_20_478">
<rect width="15" height="15" fill="white"/>
</clipPath>
</defs>
</svg>
